<svg xmlns="http://www.w3.org/2000/svg" width="930.5" height="842.323"><g data-name="그룹 8"><path data-name="교차 1" d="M63.529 831a561.075 561.075 0 0 1-16.267-42.436 549.5 549.5 0 0 1 0-351.128 560.059 560.059 0 0 1 21.515-54.244 571.524 571.524 0 0 1 26.942-51.613 585.983 585.983 0 0 1 32.05-48.686 602.054 602.054 0 0 1 36.837-45.461c12.981-14.514 26.877-28.625 41.3-41.937s29.717-26.138 45.447-38.118a643.455 643.455 0 0 1 49.27-34 655.653 655.653 0 0 1 52.77-29.585 664.248 664.248 0 0 1 55.95-24.873 673.368 673.368 0 0 1 58.806-19.862 682.35 682.35 0 0 1 61.342-14.556 691.502 691.502 0 0 1 63.557-8.951c21.594-2.024 43.614-3.05 65.45-3.05s43.855 1.026 65.45 3.05a691.728 691.728 0 0 1 63.556 8.951 681.506 681.506 0 0 1 61.342 14.556 673.276 673.276 0 0 1 58.807 19.862q10.72 4.185 21.344 8.764V831Z" fill="rgba(255,255,255,0)" stroke="rgba(255,255,255,0.46)" stroke-width="3"/><path data-name="교차 2" d="M385.764 840.823a352.54 352.54 0 0 1-10.211-26.68 346.02 346.02 0 0 1 0-220.763 352.479 352.479 0 0 1 13.5-34.1 359.545 359.545 0 0 1 16.911-32.45 368.58 368.58 0 0 1 20.117-30.61 377.976 377.976 0 0 1 23.122-28.582c8.148-9.125 16.87-18 25.925-26.367s18.653-16.434 28.526-23.966c9.9-7.551 20.3-14.743 30.925-21.377a410.615 410.615 0 0 1 33.122-18.6 416.389 416.389 0 0 1 35.119-15.638c12.029-4.7 24.448-8.9 36.911-12.488a428.907 428.907 0 0 1 38.5-9.152 433.443 433.443 0 0 1 39.893-5.628 441.135 441.135 0 0 1 82.162 0 433.443 433.443 0 0 1 39.893 5.628 426.476 426.476 0 0 1 38.5 9.152 422.23 422.23 0 0 1 36.912 12.488q6.728 2.631 13.4 5.51v473.623Z" fill="rgba(255,255,255,0)" stroke="rgba(255,255,255,0.18)" stroke-width="3"/><g data-name="타원 1" transform="translate(531)" fill="rgba(255,255,255,0.74)" stroke="rgba(112,112,112,0)"><circle cx="32" cy="32" r="32" stroke="none"/><circle cx="32" cy="32" r="31.5" fill="none"/></g><g data-name="타원 2" transform="translate(0 608)" fill="rgba(255,255,255,0.56)" stroke="rgba(112,112,112,0)"><circle cx="19" cy="19" r="19" stroke="none"/><circle cx="19" cy="19" r="18.5" fill="none"/></g></g></svg>